solid CAD
   facet normal 0 0 -1
      outer loop
         vertex 0.006 0.005 0
         vertex 0.006 0 0
         vertex 0.001 0.005 0
      endloop
   endfacet
   facet normal 0 0 -1
      outer loop
         vertex 0.006 0 0
         vertex 0 0 0
         vertex 0.001 0.005 0
      endloop
   endfacet
   facet normal 0 0 -1
      outer loop
         vertex 0.00118047967304613 0.00897516339045164 0
         vertex 0.00116198048868065 0.00896636556552071 0
         vertex 0 0.012 0
      endloop
   endfacet
   facet normal 0 0 -1
      outer loop
         vertex 0.00116198048868065 0.00896636556552071 0
         vertex 0.00114412481498937 0.00895632582136394 0
         vertex 0 0.012 0
      endloop
   endfacet
   facet normal 0 0 -1
      outer loop
         vertex 0.00114412481498937 0.00895632582136394 0
         vertex 0.00112699590336554 0.00894509096790313 0
         vertex 0 0.012 0
      endloop
   endfacet
   facet normal 0 0 -1
      outer loop
         vertex 0 0.012 0
         vertex 0.00112699590336554 0.00894509096790313 0
         vertex 0.00111067361670218 0.00893271338721133 0
      endloop
   endfacet
   facet normal 0 0 -1
      outer loop
         vertex 0.00106728661278867 0.00888932638329781 0
         vertex 0.00105490903209687 0.00887300409663446 0
         vertex 0 0.012 0
      endloop
   endfacet
   facet normal 0 0 -1
      outer loop
         vertex 0.003 0.012 0
         vertex 0.003 0.009 0
         vertex 0 0.012 0
      endloop
   endfacet
   facet normal 0 0 -1
      outer loop
         vertex 0.003 0.009 0
         vertex 0.0013 0.009 0
         vertex 0 0.012 0
      endloop
   endfacet
   facet normal 0 0 -1
      outer loop
         vertex 0.00105490903209687 0.00887300409663446 0
         vertex 0.00104367417863605 0.00885587518501063 0
         vertex 0 0.012 0
      endloop
   endfacet
   facet normal 0 0 -1
      outer loop
         vertex 0.00104367417863605 0.00885587518501063 0
         vertex 0.00103363443447929 0.00883801951131935 0
         vertex 0 0.012 0
      endloop
   endfacet
   facet normal 0 0 -1
      outer loop
         vertex 0 0.012 0
         vertex 0.00103363443447929 0.00883801951131935 0
         vertex 0.00102483660954836 0.00881952032695387 0
      endloop
   endfacet
   facet normal 0 0 -1
      outer loop
         vertex 0.00102483660954836 0.00881952032695387 0
         vertex 0.00101732172336435 0.0088004638836513 0
         vertex 0 0.012 0
      endloop
   endfacet
   facet normal 0 0 -1
      outer loop
         vertex 0.00101732172336435 0.0088004638836513 0
         vertex 0.00101112481379566 0.00878093903134711 0
         vertex 0 0.012 0
      endloop
   endfacet
   facet normal 0 0 -1
      outer loop
         vertex 0 0.012 0
         vertex 0.00101112481379566 0.00878093903134711 0
         vertex 0.0010062747736953 0.00876103680391579 0
      endloop
   endfacet
   facet normal 0 0 -1
      outer loop
         vertex 0.0010062747736953 0.00876103680391579 0
         vertex 0.0010027942161891 0.00874084999472887 0
         vertex 0 0.012 0
      endloop
   endfacet
   facet normal 0 0 -1
      outer loop
         vertex 0.0010027942161891 0.00874084999472887 0
         vertex 0.00100069936924284 0.0087204727240094 0
         vertex 0 0.012 0
      endloop
   endfacet
   facet normal 0 0 -1
      outer loop
         vertex 0 0.012 0
         vertex 0.00100069936924284 0.0087204727240094 0
         vertex 0 0 0
      endloop
   endfacet
   facet normal 0 0 -1
      outer loop
         vertex 0.00100069936924284 0.0087204727240094 0
         vertex 0.001 0.0087 0
         vertex 0 0 0
      endloop
   endfacet
   facet normal 0 0 -1
      outer loop
         vertex 0 0 0
         vertex 0.001 0.0087 0
         vertex 0.001 0.005 0
      endloop
   endfacet
   facet normal 0 0 -1
      outer loop
         vertex 0.0013 0.009 0
         vertex 0.0012795272759906 0.00899930063075716 0
         vertex 0 0.012 0
      endloop
   endfacet
   facet normal 0 0 -1
      outer loop
         vertex 0.0012795272759906 0.00899930063075716 0
         vertex 0.00125915000527113 0.0089972057838109 0
         vertex 0 0.012 0
      endloop
   endfacet
   facet normal 0 0 -1
      outer loop
         vertex 0 0.012 0
         vertex 0.00125915000527113 0.0089972057838109 0
         vertex 0.00123896319608421 0.0089937252263047 0
      endloop
   endfacet
   facet normal 0 0 -1
      outer loop
         vertex 0.00123896319608421 0.0089937252263047 0
         vertex 0.00121906096865289 0.00898887518620434 0
         vertex 0 0.012 0
      endloop
   endfacet
   facet normal 0 0 -1
      outer loop
         vertex 0.00121906096865289 0.00898887518620434 0
         vertex 0.0011995361163487 0.00898267827663565 0
         vertex 0 0.012 0
      endloop
   endfacet
   facet normal 0 0 -1
      outer loop
         vertex 0 0.012 0
         vertex 0.0011995361163487 0.00898267827663565 0
         vertex 0.00118047967304613 0.00897516339045164 0
      endloop
   endfacet
   facet normal 0 0 -1
      outer loop
         vertex 0.00111067361670218 0.00893271338721133 0
         vertex 0.0010952340570344 0.00891925078928344 0
         vertex 0 0.012 0
      endloop
   endfacet
   facet normal 0 0 -1
      outer loop
         vertex 0.0010952340570344 0.00891925078928344 0
         vertex 0.00108074921071656 0.00890476594296559 0
         vertex 0 0.012 0
      endloop
   endfacet
   facet normal 0 0 -1
      outer loop
         vertex 0 0.012 0
         vertex 0.00108074921071656 0.00890476594296559 0
         vertex 0.00106728661278867 0.00888932638329781 0
      endloop
   endfacet
endsolid CAD
solid CAD
   facet normal 0.999417022366174 -0.0341411101859646 0
      outer loop
         vertex 0.001 0.0087 0.001
         vertex 0.001 0.0087 0
         vertex 0.00100069936924284 0.0087204727240094 0.001
      endloop
   endfacet
   facet normal 0.999417022366174 -0.0341411101859646 0
      outer loop
         vertex 0.001 0.0087 0
         vertex 0.00100069936924284 0.0087204727240094 0
         vertex 0.00100069936924284 0.0087204727240094 0.001
      endloop
   endfacet
   facet normal 0.994757278858094 -0.10226414894204 0
      outer loop
         vertex 0.00100069936924284 0.0087204727240094 0.001
         vertex 0.00100069936924284 0.0087204727240094 0
         vertex 0.0010027942161891 0.00874084999472887 0.001
      endloop
   endfacet
   facet normal 0.994757278858094 -0.10226414894204 0
      outer loop
         vertex 0.00100069936924284 0.0087204727240094 0
         vertex 0.0010027942161891 0.00874084999472887 0
         vertex 0.0010027942161891 0.00874084999472887 0.001
      endloop
   endfacet
   facet normal 0.985459517717198 -0.169910385028662 0
      outer loop
         vertex 0.0010027942161891 0.00874084999472887 0.001
         vertex 0.0010027942161891 0.00874084999472887 0
         vertex 0.0010062747736953 0.00876103680391579 0.001
      endloop
   endfacet
   facet normal 0.985459517717198 -0.169910385028662 0
      outer loop
         vertex 0.0010027942161891 0.00874084999472887 0
         vertex 0.0010062747736953 0.00876103680391579 0
         vertex 0.0010062747736953 0.00876103680391579 0.001
      endloop
   endfacet
   facet normal 0.971567089397942 -0.236764420466446 0
      outer loop
         vertex 0.0010062747736953 0.00876103680391579 0.001
         vertex 0.0010062747736953 0.00876103680391579 0
         vertex 0.00101112481379566 0.00878093903134711 0.001
      endloop
   endfacet
   facet normal 0.971567089397942 -0.236764420466446 0
      outer loop
         vertex 0.0010062747736953 0.00876103680391579 0
         vertex 0.00101112481379566 0.00878093903134711 0
         vertex 0.00101112481379566 0.00878093903134711 0.001
      endloop
   endfacet
   facet normal 0.953144766814161 -0.302514550881076 0
      outer loop
         vertex 0.00101112481379566 0.00878093903134711 0.001
         vertex 0.00101112481379566 0.00878093903134711 0
         vertex 0.00101732172336435 0.0088004638836513 0.001
      endloop
   endfacet
   facet normal 0.953144766814161 -0.302514550881076 0
      outer loop
         vertex 0.00101112481379566 0.00878093903134711 0
         vertex 0.00101732172336435 0.0088004638836513 0
         vertex 0.00101732172336435 0.0088004638836513 0.001
      endloop
   endfacet
   facet normal 0.930278443337831 -0.366854218813061 0
      outer loop
         vertex 0.00101732172336435 0.0088004638836513 0.001
         vertex 0.00101732172336435 0.0088004638836513 0
         vertex 0.00102483660954836 0.00881952032695387 0.001
      endloop
   endfacet
   facet normal 0.930278443337831 -0.366854218813061 0
      outer loop
         vertex 0.00101732172336435 0.0088004638836513 0
         vertex 0.00102483660954836 0.00881952032695387 0
         vertex 0.00102483660954836 0.00881952032695387 0.001
      endloop
   endfacet
   facet normal 0.903074732324534 -0.429483443030079 0
      outer loop
         vertex 0.00102483660954836 0.00881952032695387 0.001
         vertex 0.00102483660954836 0.00881952032695387 0
         vertex 0.00103363443447929 0.00883801951131935 0.001
      endloop
   endfacet
   facet normal 0.903074732324534 -0.429483443030079 0
      outer loop
         vertex 0.00102483660954836 0.00881952032695387 0
         vertex 0.00103363443447929 0.00883801951131935 0
         vertex 0.00103363443447929 0.00883801951131935 0.001
      endloop
   endfacet
   facet normal 0.871660470032749 -0.49011021717802 0
      outer loop
         vertex 0.00103363443447929 0.00883801951131935 0.001
         vertex 0.00103363443447929 0.00883801951131935 0
         vertex 0.00104367417863605 0.00885587518501063 0.001
      endloop
   endfacet
   facet normal 0.871660470032749 -0.49011021717802 0
      outer loop
         vertex 0.00103363443447929 0.00883801951131935 0
         vertex 0.00104367417863605 0.00885587518501063 0
         vertex 0.00104367417863605 0.00885587518501063 0.001
      endloop
   endfacet
   facet normal 0.836182124254709 -0.548451871249321 0
      outer loop
         vertex 0.00104367417863605 0.00885587518501063 0.001
         vertex 0.00104367417863605 0.00885587518501063 0
         vertex 0.00105490903209687 0.00887300409663446 0.001
      endloop
   endfacet
   facet normal 0.836182124254709 -0.548451871249321 0
      outer loop
         vertex 0.00104367417863605 0.00885587518501063 0
         vertex 0.00105490903209687 0.00887300409663446 0
         vertex 0.00105490903209687 0.00887300409663446 0.001
      endloop
   endfacet
   facet normal 0.796805111415903 -0.604236389521097 0
      outer loop
         vertex 0.00105490903209687 0.00887300409663446 0.001
         vertex 0.00105490903209687 0.00887300409663446 0
         vertex 0.00106728661278867 0.00888932638329781 0.001
      endloop
   endfacet
   facet normal 0.796805111415903 -0.604236389521097 0
      outer loop
         vertex 0.00105490903209687 0.00887300409663446 0
         vertex 0.00106728661278867 0.00888932638329781 0
         vertex 0.00106728661278867 0.00888932638329781 0.001
      endloop
   endfacet
   facet normal 0.753713025327356 -0.657203678817979 0
      outer loop
         vertex 0.00106728661278867 0.00888932638329781 0.001
         vertex 0.00106728661278867 0.00888932638329781 0
         vertex 0.00108074921071656 0.00890476594296559 0.001
      endloop
   endfacet
   facet normal 0.753713025327356 -0.657203678817979 0
      outer loop
         vertex 0.00106728661278867 0.00888932638329781 0
         vertex 0.00108074921071656 0.00890476594296559 0
         vertex 0.00108074921071656 0.00890476594296559 0.001
      endloop
   endfacet
   facet normal 0.707106781186569 -0.707106781186526 0
      outer loop
         vertex 0.00108074921071656 0.00890476594296559 0.001
         vertex 0.00108074921071656 0.00890476594296559 0
         vertex 0.0010952340570344 0.00891925078928344 0.001
      endloop
   endfacet
   facet normal 0.707106781186569 -0.707106781186526 0
      outer loop
         vertex 0.00108074921071656 0.00890476594296559 0
         vertex 0.0010952340570344 0.00891925078928344 0
         vertex 0.0010952340570344 0.00891925078928344 0.001
      endloop
   endfacet
   facet normal 0.657203678817967 -0.753713025327366 0
      outer loop
         vertex 0.0010952340570344 0.00891925078928344 0.001
         vertex 0.0010952340570344 0.00891925078928344 0
         vertex 0.00111067361670218 0.00893271338721133 0.001
      endloop
   endfacet
   facet normal 0.657203678817967 -0.753713025327366 0
      outer loop
         vertex 0.0010952340570344 0.00891925078928344 0
         vertex 0.00111067361670218 0.00893271338721133 0
         vertex 0.00111067361670218 0.00893271338721133 0.001
      endloop
   endfacet
   facet normal 0.604236389521085 -0.796805111415912 0
      outer loop
         vertex 0.00111067361670218 0.00893271338721133 0.001
         vertex 0.00111067361670218 0.00893271338721133 0
         vertex 0.00112699590336554 0.00894509096790313 0.001
      endloop
   endfacet
   facet normal 0.604236389521085 -0.796805111415912 0
      outer loop
         vertex 0.00111067361670218 0.00893271338721133 0
         vertex 0.00112699590336554 0.00894509096790313 0
         vertex 0.00112699590336554 0.00894509096790313 0.001
      endloop
   endfacet
   facet normal 0.548451871249299 -0.836182124254724 0
      outer loop
         vertex 0.00112699590336554 0.00894509096790313 0.001
         vertex 0.00112699590336554 0.00894509096790313 0
         vertex 0.00114412481498937 0.00895632582136394 0.001
      endloop
   endfacet
   facet normal 0.548451871249299 -0.836182124254724 0
      outer loop
         vertex 0.00112699590336554 0.00894509096790313 0
         vertex 0.00114412481498937 0.00895632582136394 0
         vertex 0.00114412481498937 0.00895632582136394 0.001
      endloop
   endfacet
   facet normal 0.490110217178054 -0.871660470032731 0
      outer loop
         vertex 0.00114412481498937 0.00895632582136394 0.001
         vertex 0.00114412481498937 0.00895632582136394 0
         vertex 0.00116198048868065 0.00896636556552071 0.001
      endloop
   endfacet
   facet normal 0.490110217178054 -0.871660470032731 0
      outer loop
         vertex 0.00114412481498937 0.00895632582136394 0
         vertex 0.00116198048868065 0.00896636556552071 0
         vertex 0.00116198048868065 0.00896636556552071 0.001
      endloop
   endfacet
   facet normal 0.429483443030087 -0.90307473232453 0
      outer loop
         vertex 0.00116198048868065 0.00896636556552071 0.001
         vertex 0.00116198048868065 0.00896636556552071 0
         vertex 0.00118047967304613 0.00897516339045164 0.001
      endloop
   endfacet
   facet normal 0.429483443030087 -0.90307473232453 0
      outer loop
         vertex 0.00116198048868065 0.00896636556552071 0
         vertex 0.00118047967304613 0.00897516339045164 0
         vertex 0.00118047967304613 0.00897516339045164 0.001
      endloop
   endfacet
   facet normal 0.366854218813048 -0.930278443337836 0
      outer loop
         vertex 0.00118047967304613 0.00897516339045164 0.001
         vertex 0.00118047967304613 0.00897516339045164 0
         vertex 0.0011995361163487 0.00898267827663565 0.001
      endloop
   endfacet
   facet normal 0.366854218813048 -0.930278443337836 0
      outer loop
         vertex 0.00118047967304613 0.00897516339045164 0
         vertex 0.0011995361163487 0.00898267827663565 0
         vertex 0.0011995361163487 0.00898267827663565 0.001
      endloop
   endfacet
   facet normal 0.302514550881047 -0.95314476681417 0
      outer loop
         vertex 0.0011995361163487 0.00898267827663565 0.001
         vertex 0.0011995361163487 0.00898267827663565 0
         vertex 0.00121906096865289 0.00898887518620434 0.001
      endloop
   endfacet
   facet normal 0.302514550881047 -0.95314476681417 0
      outer loop
         vertex 0.0011995361163487 0.00898267827663565 0
         vertex 0.00121906096865289 0.00898887518620434 0
         vertex 0.00121906096865289 0.00898887518620434 0.001
      endloop
   endfacet
   facet normal 0.236764420466476 -0.971567089397934 0
      outer loop
         vertex 0.00121906096865289 0.00898887518620434 0.001
         vertex 0.00121906096865289 0.00898887518620434 0
         vertex 0.00123896319608421 0.0089937252263047 0.001
      endloop
   endfacet
   facet normal 0.236764420466476 -0.971567089397934 0
      outer loop
         vertex 0.00121906096865289 0.00898887518620434 0
         vertex 0.00123896319608421 0.0089937252263047 0
         vertex 0.00123896319608421 0.0089937252263047 0.001
      endloop
   endfacet
   facet normal 0.169910385028691 -0.985459517717193 0
      outer loop
         vertex 0.00123896319608421 0.0089937252263047 0.001
         vertex 0.00123896319608421 0.0089937252263047 0
         vertex 0.00125915000527113 0.0089972057838109 0.001
      endloop
   endfacet
   facet normal 0.169910385028691 -0.985459517717193 0
      outer loop
         vertex 0.00123896319608421 0.0089937252263047 0
         vertex 0.00125915000527113 0.0089972057838109 0
         vertex 0.00125915000527113 0.0089972057838109 0.001
      endloop
   endfacet
   facet normal 0.102264148942031 -0.994757278858095 0
      outer loop
         vertex 0.00125915000527113 0.0089972057838109 0.001
         vertex 0.00125915000527113 0.0089972057838109 0
         vertex 0.0012795272759906 0.00899930063075716 0.001
      endloop
   endfacet
   facet normal 0.102264148942031 -0.994757278858095 0
      outer loop
         vertex 0.00125915000527113 0.0089972057838109 0
         vertex 0.0012795272759906 0.00899930063075716 0
         vertex 0.0012795272759906 0.00899930063075716 0.001
      endloop
   endfacet
   facet normal 0.0341411101859336 -0.999417022366175 0
      outer loop
         vertex 0.0012795272759906 0.00899930063075716 0.001
         vertex 0.0012795272759906 0.00899930063075716 0
         vertex 0.0013 0.009 0.001
      endloop
   endfacet
   facet normal 0.0341411101859336 -0.999417022366175 0
      outer loop
         vertex 0.0012795272759906 0.00899930063075716 0
         vertex 0.0013 0.009 0
         vertex 0.0013 0.009 0.001
      endloop
   endfacet
   facet normal 1 1.11350493390403E-15 0
      outer loop
         vertex 0.001 0.005 0
         vertex 0.001 0.0087 0
         vertex 0.001 0.005 0.001
      endloop
   endfacet
   facet normal 1 1.11350493390403E-15 0
      outer loop
         vertex 0.001 0.0087 0
         vertex 0.001 0.0087 0.001
         vertex 0.001 0.005 0.001
      endloop
   endfacet
endsolid CAD
solid CAD
   facet normal -1 0 0
      outer loop
         vertex 0 0.012 0
         vertex 0 0 0
         vertex 0 0.012 0.001
      endloop
   endfacet
   facet normal -1 0 0
      outer loop
         vertex 0 0 0
         vertex 0 0 0.001
         vertex 0 0.012 0.001
      endloop
   endfacet
endsolid CAD
solid CAD
   facet normal 0 1 0
      outer loop
         vertex 0.003 0.012 0.001
         vertex 0.003 0.012 0
         vertex 0 0.012 0.001
      endloop
   endfacet
   facet normal 0 1 0
      outer loop
         vertex 0.003 0.012 0
         vertex 0 0.012 0
         vertex 0 0.012 0.001
      endloop
   endfacet
   facet normal 1 2.89120579329468E-16 0
      outer loop
         vertex 0.003 0.009 0.001
         vertex 0.003 0.009 0
         vertex 0.003 0.012 0.001
      endloop
   endfacet
   facet normal 1 2.89120579329468E-16 0
      outer loop
         vertex 0.003 0.009 0
         vertex 0.003 0.012 0
         vertex 0.003 0.012 0.001
      endloop
   endfacet
endsolid CAD
solid CAD
   facet normal 1.020425574104E-15 -1 0
      outer loop
         vertex 0.0013 0.009 0
         vertex 0.003 0.009 0
         vertex 0.0013 0.009 0.001
      endloop
   endfacet
   facet normal 1.020425574104E-15 -1 0
      outer loop
         vertex 0.003 0.009 0
         vertex 0.003 0.009 0.001
         vertex 0.0013 0.009 0.001
      endloop
   endfacet
endsolid CAD
solid CAD
   facet normal -6.93889390390723E-16 1 0
      outer loop
         vertex 0.001 0.005 0.001
         vertex 0.006 0.005 0.001
         vertex 0.001 0.005 0
      endloop
   endfacet
   facet normal -6.93889390390723E-16 1 0
      outer loop
         vertex 0.006 0.005 0.001
         vertex 0.006 0.005 0
         vertex 0.001 0.005 0
      endloop
   endfacet
endsolid CAD
solid CAD
   facet normal 1 6.93889390390722E-16 0
      outer loop
         vertex 0.006 0 0.001
         vertex 0.006 0 0
         vertex 0.006 0.005 0.001
      endloop
   endfacet
   facet normal 1 6.93889390390722E-16 0
      outer loop
         vertex 0.006 0 0
         vertex 0.006 0.005 0
         vertex 0.006 0.005 0.001
      endloop
   endfacet
   facet normal 0 -1 0
      outer loop
         vertex 0 0 0.001
         vertex 0 0 0
         vertex 0.006 0 0.001
      endloop
   endfacet
   facet normal 0 -1 0
      outer loop
         vertex 0 0 0
         vertex 0.006 0 0
         vertex 0.006 0 0.001
      endloop
   endfacet
endsolid CAD
solid CAD
   facet normal 0 0 1
      outer loop
         vertex 0.00118047967304613 0.00897516339045163 0.001
         vertex 0.0011995361163487 0.00898267827663565 0.001
         vertex 0 0.012 0.001
      endloop
   endfacet
   facet normal 0 0 1
      outer loop
         vertex 0.00112699590336554 0.00894509096790313 0.001
         vertex 0.00114412481498937 0.00895632582136394 0.001
         vertex 0 0.012 0.001
      endloop
   endfacet
   facet normal 0 0 1
      outer loop
         vertex 0.00114412481498937 0.00895632582136394 0.001
         vertex 0.00116198048868065 0.00896636556552071 0.001
         vertex 0 0.012 0.001
      endloop
   endfacet
   facet normal 0 0 1
      outer loop
         vertex 0 0.012 0.001
         vertex 0.00116198048868065 0.00896636556552071 0.001
         vertex 0.00118047967304613 0.00897516339045163 0.001
      endloop
   endfacet
   facet normal 0 0 1
      outer loop
         vertex 0.00102483660954836 0.00881952032695387 0.001
         vertex 0.00103363443447929 0.00883801951131935 0.001
         vertex 0 0.012 0.001
      endloop
   endfacet
   facet normal 0 0 1
      outer loop
         vertex 0.00103363443447929 0.00883801951131935 0.001
         vertex 0.00104367417863605 0.00885587518501063 0.001
         vertex 0 0.012 0.001
      endloop
   endfacet
   facet normal 0 0 1
      outer loop
         vertex 0.0011995361163487 0.00898267827663565 0.001
         vertex 0.00121906096865289 0.00898887518620434 0.001
         vertex 0 0.012 0.001
      endloop
   endfacet
   facet normal 0 0 1
      outer loop
         vertex 0.00121906096865289 0.00898887518620434 0.001
         vertex 0.00123896319608421 0.0089937252263047 0.001
         vertex 0 0.012 0.001
      endloop
   endfacet
   facet normal 0 0 1
      outer loop
         vertex 0 0.012 0.001
         vertex 0.00123896319608421 0.0089937252263047 0.001
         vertex 0.00125915000527113 0.0089972057838109 0.001
      endloop
   endfacet
   facet normal 0 0 1
      outer loop
         vertex 0.00104367417863605 0.00885587518501063 0.001
         vertex 0.00105490903209687 0.00887300409663446 0.001
         vertex 0 0.012 0.001
      endloop
   endfacet
   facet normal 0 0 1
      outer loop
         vertex 0.00105490903209687 0.00887300409663446 0.001
         vertex 0.00106728661278867 0.00888932638329781 0.001
         vertex 0 0.012 0.001
      endloop
   endfacet
   facet normal 0 0 1
      outer loop
         vertex 0 0.012 0.001
         vertex 0.00106728661278867 0.00888932638329781 0.001
         vertex 0.00108074921071656 0.00890476594296559 0.001
      endloop
   endfacet
   facet normal 0 0 1
      outer loop
         vertex 0.003 0.009 0.001
         vertex 0.003 0.012 0.001
         vertex 0.0013 0.009 0.001
      endloop
   endfacet
   facet normal 0 0 1
      outer loop
         vertex 0.003 0.012 0.001
         vertex 0 0.012 0.001
         vertex 0.0013 0.009 0.001
      endloop
   endfacet
   facet normal 0 0 1
      outer loop
         vertex 0.0013 0.009 0.001
         vertex 0 0.012 0.001
         vertex 0.0012795272759906 0.00899930063075716 0.001
      endloop
   endfacet
   facet normal 0 0 1
      outer loop
         vertex 0 0.012 0.001
         vertex 0.00125915000527113 0.0089972057838109 0.001
         vertex 0.0012795272759906 0.00899930063075716 0.001
      endloop
   endfacet
   facet normal 0 0 1
      outer loop
         vertex 0.001 0.0087 0.001
         vertex 0 0.012 0.001
         vertex 0.001 0.005 0.001
      endloop
   endfacet
   facet normal 0 0 1
      outer loop
         vertex 0 0.012 0.001
         vertex 0 0 0.001
         vertex 0.001 0.005 0.001
      endloop
   endfacet
   facet normal 0 0 1
      outer loop
         vertex 0.001 0.005 0.001
         vertex 0 0 0.001
         vertex 0.006 0.005 0.001
      endloop
   endfacet
   facet normal 0 0 1
      outer loop
         vertex 0 0 0.001
         vertex 0.006 0 0.001
         vertex 0.006 0.005 0.001
      endloop
   endfacet
   facet normal 0 0 1
      outer loop
         vertex 0.001 0.0087 0.001
         vertex 0.00100069936924284 0.0087204727240094 0.001
         vertex 0 0.012 0.001
      endloop
   endfacet
   facet normal 0 0 1
      outer loop
         vertex 0.00100069936924284 0.0087204727240094 0.001
         vertex 0.0010027942161891 0.00874084999472887 0.001
         vertex 0 0.012 0.001
      endloop
   endfacet
   facet normal 0 0 1
      outer loop
         vertex 0 0.012 0.001
         vertex 0.0010027942161891 0.00874084999472887 0.001
         vertex 0.0010062747736953 0.00876103680391579 0.001
      endloop
   endfacet
   facet normal 0 0 1
      outer loop
         vertex 0.0010062747736953 0.00876103680391579 0.001
         vertex 0.00101112481379566 0.00878093903134711 0.001
         vertex 0 0.012 0.001
      endloop
   endfacet
   facet normal 0 0 1
      outer loop
         vertex 0.00101112481379566 0.00878093903134711 0.001
         vertex 0.00101732172336435 0.0088004638836513 0.001
         vertex 0 0.012 0.001
      endloop
   endfacet
   facet normal 0 0 1
      outer loop
         vertex 0 0.012 0.001
         vertex 0.00101732172336435 0.0088004638836513 0.001
         vertex 0.00102483660954836 0.00881952032695387 0.001
      endloop
   endfacet
   facet normal 0 0 1
      outer loop
         vertex 0.00108074921071656 0.00890476594296559 0.001
         vertex 0.0010952340570344 0.00891925078928344 0.001
         vertex 0 0.012 0.001
      endloop
   endfacet
   facet normal 0 0 1
      outer loop
         vertex 0.0010952340570344 0.00891925078928344 0.001
         vertex 0.00111067361670218 0.00893271338721133 0.001
         vertex 0 0.012 0.001
      endloop
   endfacet
   facet normal 0 0 1
      outer loop
         vertex 0 0.012 0.001
         vertex 0.00111067361670218 0.00893271338721133 0.001
         vertex 0.00112699590336554 0.00894509096790313 0.001
      endloop
   endfacet
endsolid CAD
